<svg xmlns="http://www.w3.org/2000/svg" version="1.1" xmlns:xlink="http://www.w3.org/1999/xlink" xmlns:svgjs="http://svgjs.dev/svgjs" width="1440" height="5000" preserveAspectRatio="none" viewBox="0 0 1440 5000"><g mask="url(&quot;#SvgjsMask1010&quot;)" fill="none"><rect width="1440" height="5000" x="0" y="0" fill="rgba(17, 27, 55, 1)"></rect><path d="M1560 5000L0 5000 L0 3803.21Q871.29 4602.5, 72 5473.79Q-312.99 5016.8, 144 4631.81Q802.81 5170.62, 264 5829.43Q374.05 5867.48, 336 5977.53Q-214.22 5307.31, 456 4757.09Q453.43 4634.52, 576 4631.95Q1290.33 5226.28, 696 5940.61Q-316.84 4855.77, 768 3842.93Q1237.26 4240.19, 840 4709.46Q-208.71 3588.75, 912 2540.04Q2243.47 3799.51, 984 5130.97Q614.78 4689.75, 1056 4320.53Q1454.72 4599.24, 1176 4997.96Q375.41 4125.37, 1248 3324.78Q2613.34 4570.13, 1368 5935.47Q882.78 5378.25, 1440 4893.03Q372.79 3705.82, 1560 2638.61z" fill="rgba(24, 47, 93, 0)"></path></g><defs><mask id="SvgjsMask1010"><rect width="1440" height="5000" fill="#ffffff"></rect></mask></defs></svg>